<svg id="Capa_1" data-name="Capa 1" xmlns="http://www.w3.org/2000/svg" viewBox="0 0 1000 1000"><defs><style>.cls-1{fill:#08070b;}.cls-2{fill:#f2f2f2;}</style></defs><rect class="cls-1" x="50" y="50" width="900" height="900" rx="50"/><path class="cls-2" d="M694,466c-88.22,0-160-71.78-160-160s71.78-160,160-160,160,71.78,160,160S782.22,466,694,466Zm0-250a90,90,0,1,0,90,90A90.1,90.1,0,0,0,694,216Z"/><path class="cls-2" d="M300.85,460.85a154.85,154.85,0,0,1,0-309.7,156,156,0,0,1,109.5,45.35,35,35,0,0,1-49.5,49.5,84.85,84.85,0,1,0,0,120,35,35,0,0,1,49.5,49.5A156,156,0,0,1,300.85,460.85Z"/><circle class="cls-2" cx="717" cy="289.8" r="50"/><path class="cls-2" d="M717,239.8a50,50,0,1,0,50,50,50,50,0,0,0-50-50Z"/><path class="cls-2" d="M462.31,803.35l-125-250a35,35,0,0,0-62.62,0l-125,250A35,35,0,0,0,181,854H431a35,35,0,0,0,31.31-50.65ZM329.15,693.57h-46.3L306,647.26ZM237.63,784l15.22-30.43h106.3L374.37,784Z"/><path class="cls-2" d="M832.59,531.61a35,35,0,0,0-38.28,8.09L694,643.25,593.69,539.7a35,35,0,0,0-60.14,24.35V819a35,35,0,0,0,70,0V650.48l65.31,67.42c.13.14.27.26.4.39s.25.27.39.4l.24.22c.23.23.47.44.71.66l.6.53.78.65.59.47.81.61.6.43.84.56.62.41.84.5.66.38.84.45.69.36c.27.14.55.26.83.39l.73.34.82.34.77.3.81.29c.27.09.53.19.8.27l.81.25.81.23c.27.08.55.14.82.21l.82.19.83.17.82.15.85.13.81.11c.29,0,.58.07.88.09l.78.07c.31,0,.61,0,.91,0s.51,0,.76,0h1.67l1,0,.7,0,1-.09.67-.07,1-.14.66-.1,1-.18.65-.13,1-.24.65-.16,1-.28.66-.2c.32-.1.62-.21.93-.32l.69-.24.88-.35.71-.3.83-.37c.25-.12.5-.23.74-.36s.52-.26.77-.39l.77-.41.71-.42c.27-.15.53-.31.79-.48s.44-.28.66-.42l.81-.54.62-.45.8-.6.6-.48.77-.64.6-.53.71-.66.24-.22c.14-.13.26-.27.39-.4s.27-.25.4-.39l65.31-67.42V819a35,35,0,0,0,70,0v-255A35,35,0,0,0,832.59,531.61Z"/></svg>

