<svg id="Capa_1" data-name="Capa 1" xmlns="http://www.w3.org/2000/svg" viewBox="0 0 1000 1000"><defs><style>.cls-1{fill:#fff;}.cls-2,.cls-4{fill:none;}.cls-2,.cls-3{stroke:#fff;}.cls-2,.cls-3,.cls-4{stroke-miterlimit:10;}.cls-2{stroke-width:18.11px;}.cls-3{fill:#fff;}.cls-3,.cls-4{stroke-width:14.49px;}.cls-4{stroke:#00303c;}</style></defs><title>Mesa de trabajo 12</title><path class="cls-1" d="M40.07,893.31a8.42,8.42,0,0,1-.93-3.64,5.78,5.78,0,0,1,.62-2.68,7.61,7.61,0,0,1,1.59-2.13,7,7,0,0,1,2.17-1.4,6.42,6.42,0,0,1,2.42-.49,5.78,5.78,0,0,1,3.2,1,14,14,0,0,1,3.14,3,14.23,14.23,0,0,0,12.16,5.82,15.67,15.67,0,0,0,3.79-.47A12.67,12.67,0,0,0,71.58,891a7.24,7.24,0,0,0,2.36-2.12,4.87,4.87,0,0,0,.88-2.84,5,5,0,0,0-.91-3.19,6.27,6.27,0,0,0-2.31-1.84,11.79,11.79,0,0,0-3.14-1c-1.16-.21-2.29-.4-3.4-.57a54.74,54.74,0,0,1-10.24-2.63,26.67,26.67,0,0,1-7.68-4.28,17.78,17.78,0,0,1-4.86-6.08,18.06,18.06,0,0,1-1.69-8,19.08,19.08,0,0,1,1.87-8.44,20.87,20.87,0,0,1,5.09-6.68A24,24,0,0,1,55.06,839a26,26,0,0,1,9.06-1.58,31.21,31.21,0,0,1,6.34.65,28.08,28.08,0,0,1,5.9,1.91,21.12,21.12,0,0,1,5,3.15,17.45,17.45,0,0,1,3.77,4.41,3.75,3.75,0,0,1,.57,1.3,5.66,5.66,0,0,1,.16,1.35,6.1,6.1,0,0,1-.5,2.45,6,6,0,0,1-1.37,2A6.55,6.55,0,0,1,81.94,856a6.73,6.73,0,0,1-2.6.49,7.56,7.56,0,0,1-2-.28,6.91,6.91,0,0,1-2-1l-2.5-1.67a16.07,16.07,0,0,0-2.26-1.24,11.18,11.18,0,0,0-2.64-.78,21.07,21.07,0,0,0-3.59-.26,14.62,14.62,0,0,0-4.16.54,9.85,9.85,0,0,0-3.1,1.51,6.55,6.55,0,0,0-1.95,2.29,6.12,6.12,0,0,0-.68,2.83,4.71,4.71,0,0,0,1,3.14,7.59,7.59,0,0,0,2.89,2A25.52,25.52,0,0,0,63,864.94q2.81.57,6.41,1.35a46.46,46.46,0,0,1,7,2.13A21.72,21.72,0,0,1,82.62,872,17.57,17.57,0,0,1,87,877.56a16.9,16.9,0,0,1,1.67,7.8,18.86,18.86,0,0,1-1.85,8.28,21,21,0,0,1-5.14,6.78,24.88,24.88,0,0,1-7.83,4.6,28.15,28.15,0,0,1-9.88,1.69,28.71,28.71,0,0,1-7.9-1.07,29.38,29.38,0,0,1-6.87-2.9,25.2,25.2,0,0,1-5.46-4.24A19.5,19.5,0,0,1,40.07,893.31Z"/><path class="cls-1" d="M93.16,881.31a24.71,24.71,0,0,1,2-9.88,25.78,25.78,0,0,1,13.51-13.53,25.28,25.28,0,0,1,19.71,0,25.31,25.31,0,0,1,8.05,5.46,25.83,25.83,0,0,1,5.43,8.07,25.3,25.3,0,0,1,0,19.72,25.44,25.44,0,0,1-13.48,13.45,25.28,25.28,0,0,1-19.71,0,26,26,0,0,1-8-5.42,25.68,25.68,0,0,1-5.46-8A24.49,24.49,0,0,1,93.16,881.31Zm13.82,0a10.92,10.92,0,0,0,.91,4.46,11.53,11.53,0,0,0,2.5,3.64,11.72,11.72,0,0,0,3.67,2.44,11.19,11.19,0,0,0,4.43.88,11.54,11.54,0,0,0,4.5-.88,11.28,11.28,0,0,0,3.67-2.44,11.61,11.61,0,0,0,2.47-3.64,11.41,11.41,0,0,0,0-8.93,11.61,11.61,0,0,0-2.47-3.64,11.28,11.28,0,0,0-3.67-2.44,11.54,11.54,0,0,0-4.5-.88,11.19,11.19,0,0,0-4.43.88,11.72,11.72,0,0,0-3.67,2.44,11.53,11.53,0,0,0-2.5,3.64A10.93,10.93,0,0,0,107,881.31Z"/><path class="cls-1" d="M170.93,892.47a7.29,7.29,0,0,1,2.73.52,6.12,6.12,0,0,1,2.15,1.46,7,7,0,0,1,1.4,2.18,6.73,6.73,0,0,1,.52,2.65,6.88,6.88,0,0,1-.52,2.7,6.25,6.25,0,0,1-3.55,3.53,7.1,7.1,0,0,1-2.73.52,19.29,19.29,0,0,1-6.89-1.22,17.25,17.25,0,0,1-5.68-3.45,16.5,16.5,0,0,1-3.87-5.33,16,16,0,0,1-1.43-6.83V844.84A7,7,0,0,1,155,840a7,7,0,0,1,2.11-1.49,6.21,6.21,0,0,1,2.6-.54,7.1,7.1,0,0,1,2.75.54,7.55,7.55,0,0,1,2.29,1.49,7,7,0,0,1,1.55,2.18,6.27,6.27,0,0,1,.58,2.7v44.67a2.75,2.75,0,0,0,1.16,2.24A5.13,5.13,0,0,0,170.93,892.47Z"/><path class="cls-1" d="M183.55,862.76a6.45,6.45,0,0,1,.55-2.65,6.84,6.84,0,0,1,1.48-2.18,7,7,0,0,1,2.18-1.48,6.58,6.58,0,0,1,2.65-.55,6.79,6.79,0,0,1,2.67.55,7.38,7.38,0,0,1,2.24,1.47,7,7,0,0,1,1.5,2.18,6.42,6.42,0,0,1,.55,2.65V882.1a10.75,10.75,0,0,0,.83,4.23,10.13,10.13,0,0,0,2.31,3.37,10.87,10.87,0,0,0,3.48,2.23,11.29,11.29,0,0,0,4.29.8,9.66,9.66,0,0,0,4.1-.83,8.84,8.84,0,0,0,3.07-2.28,10.39,10.39,0,0,0,1.92-3.42A13.06,13.06,0,0,0,218,882v-19.2a6.28,6.28,0,0,1,.57-2.65,7.63,7.63,0,0,1,1.54-2.18,7.12,7.12,0,0,1,2.26-1.47,6.93,6.93,0,0,1,2.7-.55,6.72,6.72,0,0,1,4.8,2,6.9,6.9,0,0,1,2,4.83V882a25.7,25.7,0,0,1-1.77,9.56,24.16,24.16,0,0,1-4.93,7.82,23.6,23.6,0,0,1-7.48,5.3,22.53,22.53,0,0,1-9.4,1.94,24,24,0,0,1-9.61-1.94,24.9,24.9,0,0,1-13.17-13.12,23.62,23.62,0,0,1-1.95-9.56Z"/><path class="cls-1" d="M264.75,906.6a26.68,26.68,0,0,1-10.14-1.92,25.7,25.7,0,0,1-8.23-5.3,25.12,25.12,0,0,1-5.56-8,24.27,24.27,0,0,1-2-9.95,24.86,24.86,0,0,1,2-10,26,26,0,0,1,23.93-15.53,26.91,26.91,0,0,1,9.66,1.72,21.26,21.26,0,0,1,7.84,5.14,9,9,0,0,1,1.87,2.8,7.7,7.7,0,0,1,.63,3,5.59,5.59,0,0,1-.73,2.85,7.93,7.93,0,0,1-1.8,2.13,8.11,8.11,0,0,1-2.26,1.35,5.72,5.72,0,0,1-2.13.47,6.36,6.36,0,0,1-3.37-.91,27.29,27.29,0,0,1-2.91-2,11.9,11.9,0,0,0-3.61-1.92,12.27,12.27,0,0,0-3.56-.52,11.07,11.07,0,0,0-4.54.93,11.73,11.73,0,0,0-3.64,2.5,11.31,11.31,0,0,0-2.39,3.61,11.06,11.06,0,0,0-.86,4.29,10.63,10.63,0,0,0,.78,3.94,12.47,12.47,0,0,0,2.18,3.59,12.14,12.14,0,0,0,3.33,2.65,9.23,9.23,0,0,0,4.2,1.09l.5,0a3.79,3.79,0,0,0,.49,0,12.27,12.27,0,0,0,3.56-.52,10.88,10.88,0,0,0,3.56-2,22.73,22.73,0,0,1,2.86-2,6.24,6.24,0,0,1,5.5-.44,7.9,7.9,0,0,1,4,3.48,5.66,5.66,0,0,1,.73,2.88,7.77,7.77,0,0,1-.6,2.94,8.24,8.24,0,0,1-1.84,2.72,21.31,21.31,0,0,1-7.9,5.15A27.15,27.15,0,0,1,264.75,906.6Z"/><path class="cls-1" d="M292,844.32a6.87,6.87,0,0,1,.59-2.88,7.63,7.63,0,0,1,1.61-2.34,7.36,7.36,0,0,1,8.05-1.59,7.29,7.29,0,0,1,2.35,1.59,7.81,7.81,0,0,1,1.61,2.34,7,7,0,0,1,.59,2.88,7.18,7.18,0,0,1-.59,2.86,7.9,7.9,0,0,1-1.61,2.36,7.42,7.42,0,0,1-2.35,1.58,7.29,7.29,0,0,1-5.7,0,7.31,7.31,0,0,1-2.35-1.58,7.72,7.72,0,0,1-1.61-2.36A7,7,0,0,1,292,844.32Zm.41,18.44a6.31,6.31,0,0,1,.57-2.65,7.15,7.15,0,0,1,3.78-3.66,7.06,7.06,0,0,1,2.74-.55,6.57,6.57,0,0,1,2.64.55,6.65,6.65,0,0,1,2.15,1.48,6.85,6.85,0,0,1,1.42,2.18,6.77,6.77,0,0,1,.52,2.65v37a6.62,6.62,0,0,1-.54,2.66,7,7,0,0,1-3.65,3.66,6.56,6.56,0,0,1-2.64.54,6.78,6.78,0,0,1-2.67-.54,7.37,7.37,0,0,1-2.22-1.48A7.28,7.28,0,0,1,293,902.4a6.32,6.32,0,0,1-.57-2.66Z"/><path class="cls-1" d="M314,881.31a24.71,24.71,0,0,1,2-9.88A25.68,25.68,0,0,1,329.5,857.9a25.28,25.28,0,0,1,19.71,0,25.43,25.43,0,0,1,8.05,5.46,25.83,25.83,0,0,1,5.43,8.07,25.3,25.3,0,0,1,0,19.72,25.44,25.44,0,0,1-13.48,13.45,25.28,25.28,0,0,1-19.71,0,26.16,26.16,0,0,1-8.06-5.42,25.65,25.65,0,0,1-5.45-8A24.49,24.49,0,0,1,314,881.31Zm13.82,0a10.92,10.92,0,0,0,.91,4.46,11.53,11.53,0,0,0,2.5,3.64,11.72,11.72,0,0,0,3.67,2.44,11.18,11.18,0,0,0,4.42.88,11.55,11.55,0,0,0,4.51-.88,11.38,11.38,0,0,0,3.67-2.44,11.61,11.61,0,0,0,2.47-3.64,11.41,11.41,0,0,0,0-8.93,11.61,11.61,0,0,0-2.47-3.64,11.38,11.38,0,0,0-3.67-2.44,11.55,11.55,0,0,0-4.51-.88,11.18,11.18,0,0,0-4.42.88,11.72,11.72,0,0,0-3.67,2.44,11.53,11.53,0,0,0-2.5,3.64A10.93,10.93,0,0,0,327.81,881.31Z"/><path class="cls-1" d="M370,880.58a23.83,23.83,0,0,1,1.95-9.59,25,25,0,0,1,13.13-13.14,23.67,23.67,0,0,1,9.57-2,24.53,24.53,0,0,1,9.72,2,26.43,26.43,0,0,1,8.06,5.3,25.13,25.13,0,0,1,5.52,7.84,23.07,23.07,0,0,1,2,9.59v18.7a6.74,6.74,0,0,1-.52,2.68,6.45,6.45,0,0,1-1.43,2.12,6.52,6.52,0,0,1-2.16,1.43,6.85,6.85,0,0,1-2.66.52,7.25,7.25,0,0,1-5-1.95,6.67,6.67,0,0,1-1.51-2.12,6.58,6.58,0,0,1-.54-2.68V880.63a10.15,10.15,0,0,0-1-4.21,11.47,11.47,0,0,0-2.58-3.45,12.35,12.35,0,0,0-3.67-2.34,11.06,11.06,0,0,0-4.29-.86,10.87,10.87,0,0,0-4.2.81,10.32,10.32,0,0,0-3.38,2.23,11.07,11.07,0,0,0-2.29,3.35,10.66,10.66,0,0,0-.91,4.16v19a6.74,6.74,0,0,1-.52,2.68,6.35,6.35,0,0,1-1.45,2.12,6.75,6.75,0,0,1-2.14,1.43,6.59,6.59,0,0,1-2.62.52,7.08,7.08,0,0,1-2.69-.52,7.27,7.27,0,0,1-2.28-1.43,6.79,6.79,0,0,1-1.55-2.12,6.28,6.28,0,0,1-.57-2.68Z"/><path class="cls-1" d="M442.25,887.49a12.46,12.46,0,0,0,4.31,4.26,11.37,11.37,0,0,0,5.82,1.55,12.93,12.93,0,0,0,3.25-.33,9.49,9.49,0,0,0,2.2-.91,7.61,7.61,0,0,1,2.06-1,7.13,7.13,0,0,1,1.94-.29,6.25,6.25,0,0,1,2.68.57,6.82,6.82,0,0,1,2.13,1.56,7.58,7.58,0,0,1,1.43,2.29,7.29,7.29,0,0,1,.52,2.7,6.25,6.25,0,0,1-1,3.35,8.34,8.34,0,0,1-3,2.75,18.18,18.18,0,0,1-5.07,1.87,31.83,31.83,0,0,1-7.14.7,24.67,24.67,0,0,1-9.9-2,26.25,26.25,0,0,1-8.13-5.42,25.79,25.79,0,0,1-5.5-8,24.18,24.18,0,0,1-2-9.84,24.5,24.5,0,0,1,2-9.93,26,26,0,0,1,5.5-8.08,25.56,25.56,0,0,1,8.13-5.42,25.65,25.65,0,0,1,19.69,0,25.62,25.62,0,0,1,8.06,5.35,26.14,26.14,0,0,1,5.5,8,24.74,24.74,0,0,1,2.16,9.76,6.24,6.24,0,0,1-1.9,4.75,6.85,6.85,0,0,1-4.91,1.8ZM463.7,876a11.67,11.67,0,0,0-4.36-5,12.09,12.09,0,0,0-6.7-1.87,11.19,11.19,0,0,0-6.65,1.95,12.44,12.44,0,0,0-4.16,4.9Z"/><path class="cls-1" d="M507.76,892.16a4.87,4.87,0,0,0,1-.1,2.87,2.87,0,0,0,.94-.36,2.46,2.46,0,0,0,.7-3.11,1.7,1.7,0,0,0-.76-.64,3.31,3.31,0,0,0-1-.25,10.56,10.56,0,0,0-1.1-.06h-8.25a14.39,14.39,0,0,1-6.24-1.35,15.46,15.46,0,0,1-4.91-3.64,17.31,17.31,0,0,1-3.22-5.26,16.73,16.73,0,0,1-1.17-6.19,14.78,14.78,0,0,1,1.22-5.93,15.54,15.54,0,0,1,3.33-4.89,16,16,0,0,1,4.93-3.31,15.22,15.22,0,0,1,6.06-1.22h16.1a8,8,0,0,1,2.65.44,6.26,6.26,0,0,1,2.18,1.31,6.18,6.18,0,0,1,1.48,2.11,7,7,0,0,1,.55,2.87,7.63,7.63,0,0,1-1.9,5.08,6.14,6.14,0,0,1-2,1.51,5.86,5.86,0,0,1-2.49.55H499.49a2,2,0,0,0-1.35.55,1.87,1.87,0,0,0-.62,1.48,1.79,1.79,0,0,0,.65,1.61,2.33,2.33,0,0,0,1.22.41h9.46a14.73,14.73,0,0,1,6.31,1.35,15.89,15.89,0,0,1,5,3.61,16.44,16.44,0,0,1,3.22,5.22,17.11,17.11,0,0,1,1.14,6.19,16.46,16.46,0,0,1-1.11,6.05,15.78,15.78,0,0,1-3.12,5,15.14,15.14,0,0,1-4.81,3.46,15.52,15.52,0,0,1-6.13,1.4H489.16a6,6,0,0,1-2.55-.52,6.25,6.25,0,0,1-2-1.46,6.48,6.48,0,0,1-1.32-2.24,8.51,8.51,0,0,1-.47-2.87,6.8,6.8,0,0,1,1.77-5,6.06,6.06,0,0,1,4.57-1.83Z"/><path class="cls-1" d="M555.8,844.57a6.93,6.93,0,0,1,.55-2.75,6.75,6.75,0,0,1,1.53-2.26,7.31,7.31,0,0,1,2.26-1.5,7.07,7.07,0,0,1,2.78-.55h17.77a33.27,33.27,0,0,1,9,1.22,34.84,34.84,0,0,1,8.13,3.43,33.43,33.43,0,0,1,6.88,5.29,34.61,34.61,0,0,1,5.33,6.88,32.93,32.93,0,0,1,3.45,8.46,36.58,36.58,0,0,1,1.22,9.34A32.88,32.88,0,0,1,612,885.32a34,34,0,0,1-7.33,10.77,35.07,35.07,0,0,1-10.83,7.27A32.91,32.91,0,0,1,580.69,906H562.92a7.07,7.07,0,0,1-2.78-.54,7.82,7.82,0,0,1-2.26-1.48,6.55,6.55,0,0,1-1.53-2.21,6.86,6.86,0,0,1-.55-2.78ZM570,851.85v39.69H581.1a18.48,18.48,0,0,0,7.46-1.53,19.4,19.4,0,0,0,10.2-10.29,18.72,18.72,0,0,0,1.51-7.5,21.74,21.74,0,0,0-1.51-8,19.49,19.49,0,0,0-4.1-6.6,19.27,19.27,0,0,0-6.1-4.26,18.17,18.17,0,0,0-7.46-1.56Z"/><path class="cls-1" d="M622.3,844.32a7,7,0,0,1,.59-2.88,7.63,7.63,0,0,1,1.61-2.34,7.36,7.36,0,0,1,8-1.59,7.18,7.18,0,0,1,2.35,1.59,7.63,7.63,0,0,1,1.61,2.34,6.87,6.87,0,0,1,.59,2.88,7,7,0,0,1-.59,2.86,7.72,7.72,0,0,1-1.61,2.36,7.31,7.31,0,0,1-2.35,1.58,7.29,7.29,0,0,1-5.7,0,7.42,7.42,0,0,1-2.35-1.58,7.72,7.72,0,0,1-1.61-2.36A7.18,7.18,0,0,1,622.3,844.32Zm.41,18.44a6.31,6.31,0,0,1,.57-2.65,7.15,7.15,0,0,1,3.78-3.66,7.06,7.06,0,0,1,2.74-.55,6.57,6.57,0,0,1,2.64.55,6.65,6.65,0,0,1,2.15,1.48,6.85,6.85,0,0,1,1.42,2.18,6.77,6.77,0,0,1,.52,2.65v37a6.62,6.62,0,0,1-.54,2.66,7,7,0,0,1-3.65,3.66,6.56,6.56,0,0,1-2.64.54,6.69,6.69,0,0,1-2.66-.54,7.42,7.42,0,0,1-2.23-1.48,7.28,7.28,0,0,1-1.53-2.18,6.32,6.32,0,0,1-.57-2.66Z"/><path class="cls-1" d="M644.32,881.31a24.71,24.71,0,0,1,2-9.88,25.78,25.78,0,0,1,13.51-13.53,25.28,25.28,0,0,1,19.71,0,25.47,25.47,0,0,1,8.06,5.46,26,26,0,0,1,5.42,8.07,24.54,24.54,0,0,1,2,9.88,24.91,24.91,0,0,1-1,7.22,25.26,25.26,0,0,1-3,6.38A16.09,16.09,0,0,1,694,899.7a20,20,0,0,1,1.27,7.73,20.43,20.43,0,0,1-1.69,8.78,16,16,0,0,1-4.49,5.82,18,18,0,0,1-6.44,3.25,28.2,28.2,0,0,1-7.53,1c-.63,0-1.22,0-1.8,0s-1.15,0-1.74,0a10.47,10.47,0,0,0-3.27.49,10.87,10.87,0,0,0-3.38,2.05,6.23,6.23,0,0,1-4.1,1.61,6.85,6.85,0,0,1-2.73-.57,8.26,8.26,0,0,1-2.36-1.53A7.47,7.47,0,0,1,654,926a6,6,0,0,1-.63-2.68,6.7,6.7,0,0,1,1.3-3.7,13.2,13.2,0,0,1,3.67-3.52,22.09,22.09,0,0,1,5.63-2.64,23.85,23.85,0,0,1,7.22-1,50.73,50.73,0,0,0,5.12-.21,10.06,10.06,0,0,0,3.17-.74,3.16,3.16,0,0,0,1.61-1.47,5.72,5.72,0,0,0,.44-2.42,5.08,5.08,0,0,0-.39-2.22,5.63,5.63,0,0,0-.7-1.14,24.75,24.75,0,0,1-10.81,2.38,24.25,24.25,0,0,1-9.84-2,26,26,0,0,1-8.05-5.42,25.68,25.68,0,0,1-5.46-8A24.49,24.49,0,0,1,644.32,881.31Zm13.82,0a10.92,10.92,0,0,0,.91,4.46,11.53,11.53,0,0,0,2.5,3.64,11.72,11.72,0,0,0,3.67,2.44,11.19,11.19,0,0,0,4.43.88,11.5,11.5,0,0,0,4.5-.88,11.28,11.28,0,0,0,3.67-2.44,11.61,11.61,0,0,0,2.47-3.64,11.29,11.29,0,0,0,0-8.93,11.61,11.61,0,0,0-2.47-3.64,11.28,11.28,0,0,0-3.67-2.44,11.5,11.5,0,0,0-4.5-.88,11.19,11.19,0,0,0-4.43.88,11.72,11.72,0,0,0-3.67,2.44,11.53,11.53,0,0,0-2.5,3.64A10.93,10.93,0,0,0,658.14,881.31Z"/><path class="cls-1" d="M702.4,844.32a7,7,0,0,1,.59-2.88,7.63,7.63,0,0,1,1.61-2.34,7.32,7.32,0,0,1,10.4,0,7.63,7.63,0,0,1,1.61,2.34,6.87,6.87,0,0,1,.59,2.88,7,7,0,0,1-.59,2.86,7.72,7.72,0,0,1-1.61,2.36,7.31,7.31,0,0,1-2.35,1.58,7.09,7.09,0,0,1-2.85.58,7,7,0,0,1-2.84-.58,7.36,7.36,0,0,1-2.36-1.58,7.72,7.72,0,0,1-1.61-2.36A7.18,7.18,0,0,1,702.4,844.32Zm.41,18.44a6.31,6.31,0,0,1,.57-2.65,7.33,7.33,0,0,1,1.53-2.18,7.21,7.21,0,0,1,2.25-1.48,7.06,7.06,0,0,1,2.74-.55,6.54,6.54,0,0,1,2.64.55,6.65,6.65,0,0,1,2.15,1.48,6.85,6.85,0,0,1,1.42,2.18,6.77,6.77,0,0,1,.52,2.65v37a6.62,6.62,0,0,1-.54,2.66,6.95,6.95,0,0,1-3.65,3.66,6.56,6.56,0,0,1-2.64.54,6.69,6.69,0,0,1-2.66-.54,7.2,7.2,0,0,1-3.76-3.66,6.32,6.32,0,0,1-.57-2.66Z"/><path class="cls-1" d="M726.76,847.7a6.58,6.58,0,0,1,.57-2.73,7.75,7.75,0,0,1,1.51-2.24,6.91,6.91,0,0,1,4.88-2.05,7,7,0,0,1,2.73.55,7.31,7.31,0,0,1,2.31,1.48,7,7,0,0,1,1.58,2.23,6.5,6.5,0,0,1,.6,2.76v6.65h15.95a6.79,6.79,0,0,1,2.68.54,7.12,7.12,0,0,1,3.74,3.74,6.79,6.79,0,0,1,.54,2.68,6.19,6.19,0,0,1-.54,2.59A6.86,6.86,0,0,1,761.8,866a7.19,7.19,0,0,1-2.23,1.42,7,7,0,0,1-2.68.52H740.94v13.43a11.56,11.56,0,0,0,3.22,8.09,11,11,0,0,0,3.54,2.43,10.89,10.89,0,0,0,4.41.88,13.47,13.47,0,0,0,3.95-.56,8.44,8.44,0,0,0,3.22-1.88,11.57,11.57,0,0,1,2.41-1.69,6.21,6.21,0,0,1,2.84-.64,5.68,5.68,0,0,1,2.28.49,6.17,6.17,0,0,1,2,1.38,7.23,7.23,0,0,1,1.4,2,5.8,5.8,0,0,1,.55,2.52,8.26,8.26,0,0,1-.65,3.18,8.49,8.49,0,0,1-1.84,2.77,21.22,21.22,0,0,1-7.33,4.69,25.48,25.48,0,0,1-18.7-.43,25.45,25.45,0,0,1-13.48-13.48,24.7,24.7,0,0,1-2-9.87Z"/><path class="cls-1" d="M799.54,906.6a24.25,24.25,0,0,1-9.84-2,26.16,26.16,0,0,1-8.06-5.42,25.65,25.65,0,0,1-5.45-8,25.3,25.3,0,0,1,0-19.72A25.68,25.68,0,0,1,789.7,857.9a25.15,25.15,0,0,1,19.61,0,26,26,0,0,1,8,5.35,25.62,25.62,0,0,1,5.45,7.95,24.94,24.94,0,0,1,2.13,9.71v18.65a7.07,7.07,0,0,1-.54,2.78,7.15,7.15,0,0,1-1.51,2.23,7,7,0,0,1-5,2.05,6.46,6.46,0,0,1-5.82-3.27,27.08,27.08,0,0,1-5.92,2.42A24.66,24.66,0,0,1,799.54,906.6Zm0-13.87a11.54,11.54,0,0,0,4.5-.88,11.38,11.38,0,0,0,3.67-2.44,11.61,11.61,0,0,0,2.47-3.64,11.41,11.41,0,0,0,0-8.93,11.61,11.61,0,0,0-2.47-3.64,11.38,11.38,0,0,0-3.67-2.44,11.54,11.54,0,0,0-4.5-.88,11.19,11.19,0,0,0-4.43.88,11.72,11.72,0,0,0-3.67,2.44,11.53,11.53,0,0,0-2.5,3.64,11.41,11.41,0,0,0,0,8.93,11.53,11.53,0,0,0,2.5,3.64,11.72,11.72,0,0,0,3.67,2.44A11.19,11.19,0,0,0,799.52,892.73Z"/><path class="cls-1" d="M854.29,892.47A7.29,7.29,0,0,1,857,893a6.07,6.07,0,0,1,2.16,1.46,7.15,7.15,0,0,1,1.4,2.18,6.73,6.73,0,0,1,.52,2.65,6.88,6.88,0,0,1-.52,2.7,6.58,6.58,0,0,1-1.4,2.13,6.35,6.35,0,0,1-2.16,1.4,7.1,7.1,0,0,1-2.73.52,19.28,19.28,0,0,1-6.88-1.22,17.4,17.4,0,0,1-5.69-3.45,16.48,16.48,0,0,1-3.86-5.33,16,16,0,0,1-1.43-6.83V844.84a6.84,6.84,0,0,1,1.94-4.88,7,7,0,0,1,2.11-1.49,6.21,6.21,0,0,1,2.6-.54,7.13,7.13,0,0,1,2.75.54,7.8,7.8,0,0,1,2.29,1.49,7,7,0,0,1,1.55,2.18,6.41,6.41,0,0,1,.57,2.7v44.67a2.78,2.78,0,0,0,1.17,2.24A5.07,5.07,0,0,0,854.29,892.47Z"/><path class="cls-1" d="M880,887.49a12.37,12.37,0,0,0,4.31,4.26,11.34,11.34,0,0,0,5.82,1.55,12.79,12.79,0,0,0,3.24-.33,9.57,9.57,0,0,0,2.21-.91,7.47,7.47,0,0,1,2.06-1,7.13,7.13,0,0,1,1.94-.29,6.28,6.28,0,0,1,2.68.57,6.82,6.82,0,0,1,2.13,1.56,7.58,7.58,0,0,1,1.43,2.29,7.29,7.29,0,0,1,.52,2.7,6.25,6.25,0,0,1-1,3.35,8.34,8.34,0,0,1-3,2.75,18.3,18.3,0,0,1-5.07,1.87,32,32,0,0,1-7.14.7,24.67,24.67,0,0,1-9.9-2,25.73,25.73,0,0,1-13.64-13.45,24.17,24.17,0,0,1-2-9.84,24.49,24.49,0,0,1,2-9.93,26.21,26.21,0,0,1,5.51-8.08,25.56,25.56,0,0,1,8.13-5.42,25.65,25.65,0,0,1,19.69,0A25.58,25.58,0,0,1,908,863.2a26.16,26.16,0,0,1,5.51,8,24.91,24.91,0,0,1,2.15,9.76,6.24,6.24,0,0,1-1.89,4.75,6.85,6.85,0,0,1-4.91,1.8ZM901.46,876a11.74,11.74,0,0,0-4.36-5,12.11,12.11,0,0,0-6.7-1.87,11.19,11.19,0,0,0-6.65,1.95,12.44,12.44,0,0,0-4.16,4.9Z"/><path class="cls-1" d="M945.51,892.16a5,5,0,0,0,1-.1,2.82,2.82,0,0,0,.93-.36,2.1,2.1,0,0,0,.7-.72,2.61,2.61,0,0,0,0-2.39,1.67,1.67,0,0,0-.75-.64,3.38,3.38,0,0,0-1-.25,10.38,10.38,0,0,0-1.09-.06H937a14.38,14.38,0,0,1-6.23-1.35,15.35,15.35,0,0,1-4.91-3.64,17.31,17.31,0,0,1-3.22-5.26,16.73,16.73,0,0,1-1.17-6.19,14.78,14.78,0,0,1,1.22-5.93,15.37,15.37,0,0,1,3.33-4.89,15.89,15.89,0,0,1,4.93-3.31,15.18,15.18,0,0,1,6-1.22H953.1a8,8,0,0,1,2.64.44,6.15,6.15,0,0,1,3.67,3.42,7.2,7.2,0,0,1,.54,2.87,7.69,7.69,0,0,1-1.89,5.08,6.24,6.24,0,0,1-2,1.51,5.87,5.87,0,0,1-2.5.55H937.25a2,2,0,0,0-1.35.55,1.87,1.87,0,0,0-.62,1.48,1.76,1.76,0,0,0,.65,1.61,2.33,2.33,0,0,0,1.22.41h9.45a14.75,14.75,0,0,1,6.32,1.35,15.73,15.73,0,0,1,5,3.61A16.47,16.47,0,0,1,961.1,884a17.11,17.11,0,0,1,1.14,6.19,16.26,16.26,0,0,1-1.12,6.05,15.43,15.43,0,0,1-3.12,5,15,15,0,0,1-4.8,3.46,15.52,15.52,0,0,1-6.13,1.4H926.91a6,6,0,0,1-2.54-.52,6.25,6.25,0,0,1-2-1.46,6.5,6.5,0,0,1-1.33-2.24,8.51,8.51,0,0,1-.46-2.87,6.84,6.84,0,0,1,1.76-5,6.07,6.07,0,0,1,4.57-1.83Z"/><path class="cls-2" d="M397.15,176.27a53,53,0,0,0-20.56-13.17,73.23,73.23,0,0,0-23.5-3.74,58.89,58.89,0,0,0-22.72,4.52,61.14,61.14,0,0,0-19.17,12.49,60.09,60.09,0,0,0-13.18,19,58.69,58.69,0,0,0-4.92,24.2,61.62,61.62,0,0,0,4.43,23.2A59.3,59.3,0,0,0,309.92,262,61.06,61.06,0,0,0,328.6,275.2a57.85,57.85,0,0,0,23.51,5.12,59.05,59.05,0,0,0,23.4-3.74q10.62-4.12,20.85-14a29.23,29.23,0,0,1,11.21-7,39.56,39.56,0,0,1,26.36,0,30.66,30.66,0,0,1,11.21,6.79,31.67,31.67,0,0,1,7.77,11.6,37.44,37.44,0,0,1,2.46,13.28,36.62,36.62,0,0,1-2.46,13.18,33.88,33.88,0,0,1-7.18,11.31,131.1,131.1,0,0,1-43.86,29.11,133.92,133.92,0,0,1-50,9.63,121,121,0,0,1-33.83-4.72,132.6,132.6,0,0,1-30.68-13.18,130.87,130.87,0,0,1-26.26-20.35,128.46,128.46,0,0,1-20.35-26.45,135.64,135.64,0,0,1-13.18-31.18,126.32,126.32,0,0,1-4.72-34.71,128.79,128.79,0,0,1,4.42-33.54,134.67,134.67,0,0,1,32.36-57.82,125.2,125.2,0,0,1,26.16-21.14,128.8,128.8,0,0,1,67.46-18.69,133.74,133.74,0,0,1,49.36,9.44,126.78,126.78,0,0,1,43.47,28.92,33.39,33.39,0,0,1,7.47,11.21,33.81,33.81,0,0,1,2.56,12.88,34.58,34.58,0,0,1-2.56,13,33.3,33.3,0,0,1-7.47,11.31,35.5,35.5,0,0,1-11.5,7.47,37.93,37.93,0,0,1-13.09,2.76,34.31,34.31,0,0,1-13.07-2.17A30.84,30.84,0,0,1,397.15,176.27Z"/><path class="cls-2" d="M575.81,628.25a43.77,43.77,0,0,1-4.53-18.68,30.09,30.09,0,0,1,3.05-13.47,35.46,35.46,0,0,1,7.87-10.63,37.86,37.86,0,0,1,10.82-7,30.64,30.64,0,0,1,12.09-2.55,29.25,29.25,0,0,1,16.13,5.11q7.86,5.12,16.13,15.14,4.32,3.75,8.06,6.4a36.49,36.49,0,0,0,7.67,4.22,40.81,40.81,0,0,0,8.56,2.36,63.88,63.88,0,0,0,10.72.79q13,0,18.68-2.26c3.8-1.51,5.71-3.31,5.71-5.41s-1.74-4.13-5.22-6.1-8.29-3.47-14.45-4.52q-26-4.12-45.14-11.31t-31.76-17.8a66.39,66.39,0,0,1-18.69-24.88q-6.09-14.25-6.09-32.35a81.37,81.37,0,0,1,7.27-34.22,87.11,87.11,0,0,1,20.06-27.84A93.48,93.48,0,0,1,633,424.59a104.77,104.77,0,0,1,38.16-6.78,129.84,129.84,0,0,1,24.48,2.35,112,112,0,0,1,23.41,7.18,90,90,0,0,1,20.26,12.1,64.74,64.74,0,0,1,15,16.91,24.45,24.45,0,0,1,2.76,6.69,29.37,29.37,0,0,1,.78,6.69,30.7,30.7,0,0,1-2.55,12.49,31.47,31.47,0,0,1-7.09,10.13,33.37,33.37,0,0,1-10.52,6.78,34.14,34.14,0,0,1-13.07,2.46,32.15,32.15,0,0,1-12.2-2.16q-5.31-2.16-10.92-4.82a97.13,97.13,0,0,0-12.48-4.82,57.16,57.16,0,0,0-16.92-2.16,47.64,47.64,0,0,0-13.47,1.57,22.09,22.09,0,0,0-8.16,4.13,13.45,13.45,0,0,0-4,5.51,15.83,15.83,0,0,0-1.09,5.5c0,3.28.76,5.84,2.26,7.67s4.26,3.42,8.26,4.72a110.18,110.18,0,0,0,16.52,3.64q10.53,1.68,27,4.63a114.84,114.84,0,0,1,25,6.49,72,72,0,0,1,22.12,13.27,64.25,64.25,0,0,1,15.74,21.34q6,12.79,6,30.68a73.19,73.19,0,0,1-7,31.18,81.06,81.06,0,0,1-19.86,26.55,98.42,98.42,0,0,1-31.07,18.39q-18.2,6.89-40.62,6.88a115.85,115.85,0,0,1-58.22-15.34A99.68,99.68,0,0,1,590.26,648,80.62,80.62,0,0,1,575.81,628.25Z"/><path class="cls-3" d="M529.58,91.63H743.65a10.48,10.48,0,0,1,10.75,10.19V337.9a10.49,10.49,0,0,1-10.75,10.2h-128a10.48,10.48,0,0,1-10.75-10.26l.65-102.21a10.48,10.48,0,0,0-10.75-10.25H529.58a10.49,10.49,0,0,1-10.75-10.2V101.82C518.83,96.19,523.65,91.63,529.58,91.63Z"/><path class="cls-4" d="M721.18,120.46v26.29c0,4.16-2.93,7.53-6.55,7.53H665.14v11.21a.74.74,0,0,1-1.16.61l-16.55-11.21a.75.75,0,0,1,0-1.23L664,142.46a.74.74,0,0,1,1.16.61v9.17"/><path class="cls-2" d="M226.05,505.13a85.32,85.32,0,0,1,6.78-33.83,87.09,87.09,0,0,1,18.59-27.73,88.45,88.45,0,0,1,27.63-18.68A84.61,84.61,0,0,1,313.17,418a82.15,82.15,0,0,1,27.74,4.62,90.36,90.36,0,0,1,24,12.89,87.31,87.31,0,0,1,23.8-12.89A80.88,80.88,0,0,1,416,418a86.06,86.06,0,0,1,34.32,6.89,87.08,87.08,0,0,1,46.51,46.41,84.37,84.37,0,0,1,6.89,33.83V641.82a34.36,34.36,0,0,1-2.85,14A35.09,35.09,0,0,1,493.14,667a37,37,0,0,1-11.51,7.47,35.54,35.54,0,0,1-13.87,2.76,36,36,0,0,1-14.06-2.76A36.82,36.82,0,0,1,442.2,667a34.75,34.75,0,0,1-10.63-25.18V507.88a14.25,14.25,0,0,0-4.72-10.62,15.89,15.89,0,0,0-11.4-4.52,14.36,14.36,0,0,0-10.43,4,14.07,14.07,0,0,0-4.13,10.52v35.6A36.06,36.06,0,0,1,398.14,557a35.46,35.46,0,0,1-33,21.92A35.93,35.93,0,0,1,351,576.13,35.25,35.25,0,0,1,331.86,557a36.06,36.06,0,0,1-2.75-14.07V507.1a13.35,13.35,0,0,0-4.43-10.33,15.92,15.92,0,0,0-11.11-4,15.11,15.11,0,0,0-10.92,4.52A14.41,14.41,0,0,0,298,507.88V641.82a34.36,34.36,0,0,1-2.85,14,35,35,0,0,1-19.08,18.68,37.19,37.19,0,0,1-28.12,0,35,35,0,0,1-19.08-18.68,34.19,34.19,0,0,1-2.85-14Z"/></svg>